<svg width="10" height="15" viewBox="0 0 10 15" fill="none" xmlns="http://www.w3.org/2000/svg">
<rect x="8" y="6.50003" width="2" height="2" fill="white"/>
<rect x="5.99976" y="6.50003" width="2" height="2" fill="white"/>
<rect x="5.99976" y="4.5" width="2" height="2" fill="white"/>
<rect x="5.99976" y="8.5" width="2" height="2" fill="white"/>
<rect x="3.99988" y="10.5" width="2" height="2" fill="white"/>
<rect x="3.99988" y="8.5" width="2" height="2" fill="white"/>
<rect x="3.99988" y="6.50003" width="2" height="2" fill="white"/>
<rect x="3.99988" y="4.5" width="2" height="2" fill="white"/>
<rect x="3.99988" y="2.5" width="2" height="2" fill="white"/>
<rect x="1.99963" y="10.5" width="2" height="2" fill="white"/>
<rect x="1.99963" y="12.5" width="2" height="2" fill="white"/>
<rect x="1.99963" y="8.5" width="2" height="2" fill="white"/>
<rect x="1.99963" y="6.50003" width="2" height="2" fill="white"/>
<rect x="1.99963" y="4.5" width="2" height="2" fill="white"/>
<rect x="1.99963" y="2.5" width="2" height="2" fill="white"/>
<rect x="1.99963" y="2.5" width="2" height="2" fill="white"/>
<rect x="1.99963" y="0.5" width="2" height="2" fill="white"/>
<rect x="-0.000244141" y="10.5" width="2" height="2" fill="white"/>
<rect x="-0.000244141" y="12.5" width="2" height="2" fill="white"/>
<rect x="-0.000244141" y="8.5" width="2" height="2" fill="white"/>
<rect x="-0.000244141" y="6.50003" width="2" height="2" fill="white"/>
<rect x="-0.000244141" y="4.5" width="2" height="2" fill="white"/>
<rect x="-0.000244141" y="2.5" width="2" height="2" fill="white"/>
<rect x="-0.000244141" y="2.5" width="2" height="2" fill="white"/>
<rect x="-0.00012207" y="0.5" width="2" height="2" fill="white"/>
</svg>
